<?xml version="1.0" encoding="UTF-8"?>
<svg width="100px" height="100px" viewBox="0 0 100 100" version="1.1" xmlns="http://www.w3.org/2000/svg" xmlns:xlink="http://www.w3.org/1999/xlink">
    <!-- Generator: Sketch 54.1 (76490) - https://sketchapp.com -->
    <title>crosshair</title>
    <desc>Created with Sketch.</desc>
    <g id="Backoffice---Design" stroke="none" stroke-width="1" fill="none" fill-rule="evenodd">
        <g id="Place" transform="translate(-830.000000, -462.000000)" fill="#000000">
            <path d="M929.990199,513 C929.464061,539.82011 907.82011,561.464061 881,561.990199 L881,562 L879,562 L879,561.990199 C852.17989,561.464061 830.535939,539.82011 830.009801,513 L830,513 L830,511 L830.009801,511 C830.535939,484.17989 852.17989,462.535939 879,462.009801 L879,462 L881,462 L881,462.009801 C907.82011,462.535939 929.464061,484.17989 929.990199,511 L930,511 L930,513 L929.990199,513 Z M927.98979,513 L920,513 L920,511 L927.98979,511 C927.464247,485.284509 906.715491,464.535753 881,464.01021 L881,472 L879,472 L879,464.01021 C853.284509,464.535753 832.535753,485.284509 832.01021,511 L840,511 L840,513 L832.01021,513 C832.535753,538.715491 853.284509,559.464247 879,559.98979 L879,552 L881,552 L881,559.98979 C906.715491,559.464247 927.464247,538.715491 927.98979,513 Z M879,511 L881,511 L881,513 L879,513 L879,511 Z" id="crosshair"></path>
        </g>
    </g>
</svg>