<?xml version="1.0" encoding="UTF-8"?>
<svg width="24px" height="24px" viewBox="0 0 24 24" version="1.1" xmlns="http://www.w3.org/2000/svg" xmlns:xlink="http://www.w3.org/1999/xlink">
    <!-- Generator: Sketch 54.1 (76490) - https://sketchapp.com -->
    <title>location-off</title>
    <desc>Created with Sketch.</desc>
    <g id="location-off" stroke="none" stroke-width="1" fill="none" fill-rule="evenodd">
        <g id="Group-3" transform="translate(2.000000, 1.000000)" fill="#000000" fill-rule="nonzero">
            <path d="M15.1145409,13.1353562 L11.5062218,21.0080521 C11.141095,21.8046925 9.94811349,21.5443234 9.94811349,20.6679939 L9.94811349,11.543864 L0.817288373,11.543864 C-0.0589060599,11.543864 -0.319400862,10.3511687 0.477006661,9.98585819 L8.35254839,6.37336367 L9.5836864,7.60450168 L4.55415378,9.91153778 L10.3817002,9.91153778 C11.0437458,9.91153778 11.5804398,10.4482318 11.5804398,11.1102774 L11.5804398,16.9284267 L13.8832652,11.9040804 L15.1145409,13.1353562 Z M17.3368765,8.28662397 L16.1056008,7.05534825 L17.5230498,3.9627323 L14.4312068,5.38095423 L13.2000687,4.14981622 L18.8406773,1.56248087 C19.5285483,1.24695586 20.238222,1.95641573 19.9229042,2.64438179 L17.3368765,8.28662397 Z M5.40710678,1.41421356 L6.82132034,6.70574707e-14 L22.3776695,15.5563492 L20.963456,16.9705627 L5.40710678,1.41421356 Z" id="Combined-Shape"></path>
        </g>
    </g>
</svg>