<?xml version="1.0" encoding="UTF-8"?>
<svg width="24px" height="24px" viewBox="0 0 24 24" version="1.1" xmlns="http://www.w3.org/2000/svg" xmlns:xlink="http://www.w3.org/1999/xlink">
    <!-- Generator: Sketch 54.1 (76490) - https://sketchapp.com -->
    <title>location-off-alt</title>
    <desc>Created with Sketch.</desc>
    <g id="location-off-alt" stroke="none" stroke-width="1" fill="none" fill-rule="evenodd">
        <g id="Group-2" transform="translate(2.000000, 2.000000)" fill="#000000" fill-rule="nonzero">
            <path d="M10.7692815,20 C10.5617175,20.0000715 10.3629334,19.9162607 10.2180771,19.7676029 C10.0732208,19.6189451 9.99458724,19.4180578 10.0000358,19.2105667 L10.0000358,10.3907415 C10.0000358,10.1783215 9.8278343,10.0061211 9.61541298,10.0061211 L0.788799794,10.0061211 C0.457274399,10.0100476 0.159106709,9.80504658 0.0440738383,9.49409531 C-0.0884295586,9.11901621 0.0868965158,8.70478238 0.448408589,8.53879454 L18.9103045,0.06993538 C19.2024083,-0.0639031039 19.5469275,-0.00209271341 19.7742859,0.22494279 C20.0016443,0.451978294 20.0639425,0.796407494 19.9305165,1.08869851 L11.4688142,19.5504749 C11.3436895,19.8242909 11.0703335,19.9999515 10.7692815,20 Z" id="location-on"></path>
        </g>
        <polygon id="Line" fill="#000000" fill-rule="nonzero" transform="translate(15.892388, 9.485281) rotate(-315.000000) translate(-15.892388, -9.485281) " points="4.89238816 10.4852814 26.8923882 10.4852814 26.8923882 8.48528137 4.89238816 8.48528137"></polygon>
    </g>
</svg>