<?xml version="1.0" encoding="UTF-8"?>
<svg width="24px" height="24px" viewBox="0 0 24 24" version="1.1" xmlns="http://www.w3.org/2000/svg" xmlns:xlink="http://www.w3.org/1999/xlink">
    <!-- Generator: Sketch 54.1 (76490) - https://sketchapp.com -->
    <title>tracking-on</title>
    <desc>Created with Sketch.</desc>
    <g id="tracking-on" stroke="none" stroke-width="1" fill="none" fill-rule="evenodd">
        <path d="M14.5,5 C15.6,5 16.5,4.1 16.5,3 C16.5,1.9 15.6,1 14.5,1 C13.4,1 12.5,1.9 12.5,3 C12.5,4.1 13.4,5 14.5,5 Z M10.8,8.4 L8,22.5 L10.1,22.5 L11.9,14.5 L14,16.5 L14,22.5 L16,22.5 L16,15 L13.9,13 L14.5,10 C15.8,11.5 17.8,12.5 20,12.5 L20,10.5 C18.1,10.5 16.5,9.5 15.7,8.1 L14.7,6.5 C14.3,5.9 13.7,5.5 13,5.5 C12.7,5.5 12.5,5.6 12.2,5.6 L7,7.8 L7,12.5 L9,12.5 L9,9.1 L10.8,8.4 L10.8,8.4 Z" id="Shape" fill="#E03D3A" fill-rule="nonzero"></path>
    </g>
</svg>