<?xml version="1.0" encoding="UTF-8"?>
<svg width="182px" height="75px" viewBox="0 0 182 75" version="1.1" xmlns="http://www.w3.org/2000/svg" xmlns:xlink="http://www.w3.org/1999/xlink">
    <!-- Generator: Sketch 54.1 (76490) - https://sketchapp.com -->
    <title>Combined Shape</title>
    <desc>Created with Sketch.</desc>
    <g id="Backoffice---Design" stroke="none" stroke-width="1" fill="none" fill-rule="evenodd">
        <g id="Login" transform="translate(-149.000000, -455.000000)" fill="#FFFFFF">
            <g id="Group" transform="translate(139.000000, 455.000000)">
                <path d="M11.7114,43.832 C21.8294,36.547 32.5604,32.822 44.3064,31.317 C65.3704,28.618 84.5784,35.042 103.7054,42.474 C113.0914,46.12 122.5484,49.705 132.2114,52.488 C147.1684,56.797 161.7284,54.723 175.7304,48.096 C179.2844,46.413 182.9814,45.028 187.0104,43.34 C188.0124,45.414 188.8574,47.165 190.2254,49.995 C183.7974,52.816 177.4834,55.844 170.9824,58.391 C153.5174,65.232 136.1724,63.493 119.0244,57.061 C106.1624,52.235 93.5624,46.604 80.4804,42.496 C58.2814,35.523 36.5914,36.637 16.2404,49.943 C14.7264,47.901 13.3864,46.093 11.7114,43.832 Z M121.4936,17.1503 C108.6566,14.3263 96.1886,10.9133 83.4956,8.9583 C67.1516,6.4393 50.8226,7.2463 36.1816,16.0833 C31.0576,19.1763 27.0876,24.1443 22.4446,28.0833 C18.5716,31.3683 14.4846,34.4003 9.9996,36.8993 C15.4846,20.1613 27.0046,9.9633 43.1146,4.4173 C63.4736,-2.5927 83.6666,-0.4247 103.8426,5.1203 C107.9996,6.2633 112.0736,7.7443 116.2706,8.6933 C121.1346,9.7943 122.8516,12.4743 121.4936,17.1503 Z M38.8179,55.6142 C38.0699,52.9692 37.4559,50.7952 36.6289,47.8702 C63.5939,40.1232 86.9079,49.8022 110.4069,60.6572 C109.5729,63.1502 108.9079,65.1352 107.9219,68.0812 C85.9539,57.5452 63.8499,48.6052 38.8179,55.6142 Z M187.9155,38.5898 C185.4645,37.1508 183.4945,35.9928 181.6445,34.9058 C181.5465,34.3738 181.3455,33.9948 181.4535,33.7588 C184.7965,26.4848 184.8295,26.4438 178.2355,22.1528 C171.3755,17.6888 164.3725,13.5908 155.6965,14.1248 C154.6165,14.1918 153.5005,13.6508 152.4125,13.3938 C153.7305,6.6128 154.8245,5.7568 161.2435,6.5368 C172.6575,7.9238 181.7165,14.0478 189.7025,21.6748 C191.4595,23.3528 191.7065,27.4018 191.4025,30.2248 C191.1035,33.0088 189.2245,35.6228 187.9155,38.5898 Z M53.2734,67.664 C52.6714,59.649 52.7954,59.326 59.9294,59.441 C71.1594,59.621 81.7174,62.624 92.2734,67.851 C91.3944,70.015 90.5604,72.065 89.5074,74.657 C77.8174,70.302 66.3174,65.529 53.2734,67.664 Z M148.397,4.311 C147.447,9.054 145.18,11.216 140.351,10.223 C137.699,9.677 136.028,10.982 134.859,13.915 C134.123,15.762 131.137,16.712 129.197,18.04 C126.54,13.357 127.371,8.611 130.833,5.376 C135.108,1.381 142.781,0.891 148.397,4.311 Z M162.6821,28.0351 L154.8801,28.0351 C153.2011,19.5591 154.3181,18.5151 163.0071,20.6081 C162.9011,23.0501 162.7901,25.5671 162.6821,28.0351 Z" id="Combined-Shape"></path>
            </g>
        </g>
    </g>
</svg>