<?xml version="1.0" encoding="UTF-8"?>
<svg width="182px" height="75px" viewBox="0 0 182 75" version="1.1" xmlns="http://www.w3.org/2000/svg" xmlns:xlink="http://www.w3.org/1999/xlink">
    <!-- Generator: Sketch 54.1 (76490) - https://sketchapp.com -->
    <title>logo</title>
    <desc>Created with Sketch.</desc>
    <g id="Mobile---Design" stroke="none" stroke-width="1" fill="none" fill-rule="evenodd">
        <g id="Assets" transform="translate(-42.000000, -464.000000)" fill="#000000">
            <path d="M43.7118,507.831831 C53.8298,500.546831 64.5608,496.821831 76.3068,495.316831 C97.3708,492.617831 116.5788,499.041831 135.7058,506.473831 C145.0918,510.119831 154.5488,513.704831 164.2118,516.487831 C179.1688,520.796831 193.7288,518.722831 207.7308,512.095831 C211.2848,510.412831 214.9818,509.027831 219.0108,507.339831 C220.0128,509.413831 220.8578,511.164831 222.2258,513.994831 C215.7978,516.815831 209.4838,519.843831 202.9828,522.390831 C185.5178,529.231831 168.1728,527.492831 151.0248,521.060831 C138.1628,516.234831 125.5628,510.603831 112.4808,506.495831 C90.2818,499.522831 68.5918,500.636831 48.2408,513.942831 C46.7268,511.900831 45.3868,510.092831 43.7118,507.831831 Z M153.494,481.150131 C140.657,478.326131 128.189,474.913131 115.496,472.958131 C99.152,470.439131 82.823,471.246131 68.182,480.083131 C63.058,483.176131 59.088,488.144131 54.445,492.083131 C50.572,495.368131 46.485,498.400131 42,500.899131 C47.485,484.161131 59.005,473.963131 75.115,468.417131 C95.474,461.407131 115.667,463.575131 135.843,469.120131 C140,470.263131 144.074,471.744131 148.271,472.693131 C153.135,473.794131 154.852,476.474131 153.494,481.150131 Z M70.8183,519.614031 C70.0703,516.969031 69.4563,514.795031 68.6293,511.870031 C95.5943,504.123031 118.9083,513.802031 142.4073,524.657031 C141.5733,527.150031 140.9083,529.135031 139.9223,532.081031 C117.9543,521.545031 95.8503,512.605031 70.8183,519.614031 Z M219.9159,502.589631 C217.4649,501.150631 215.4949,499.992631 213.6449,498.905631 C213.5469,498.373631 213.3459,497.994631 213.4539,497.758631 C216.7969,490.484631 216.8299,490.443631 210.2359,486.152631 C203.3759,481.688631 196.3729,477.590631 187.6969,478.124631 C186.6169,478.191631 185.5009,477.650631 184.4129,477.393631 C185.7309,470.612631 186.8249,469.756631 193.2439,470.536631 C204.6579,471.923631 213.7169,478.047631 221.7029,485.674631 C223.4599,487.352631 223.7069,491.401631 223.4029,494.224631 C223.1039,497.008631 221.2249,499.622631 219.9159,502.589631 Z M85.2738,531.663831 C84.6718,523.648831 84.7958,523.325831 91.9298,523.440831 C103.1598,523.620831 113.7178,526.623831 124.2738,531.850831 C123.3948,534.014831 122.5608,536.064831 121.5078,538.656831 C109.8178,534.301831 98.3178,529.528831 85.2738,531.663831 Z M180.3974,468.310831 C179.4474,473.053831 177.1804,475.215831 172.3514,474.222831 C169.6994,473.676831 168.0284,474.981831 166.8594,477.914831 C166.1234,479.761831 163.1374,480.711831 161.1974,482.039831 C158.5404,477.356831 159.3714,472.610831 162.8334,469.375831 C167.1084,465.380831 174.7814,464.890831 180.3974,468.310831 Z M194.6825,492.034931 L186.8805,492.034931 C185.2015,483.558931 186.3185,482.514931 195.0075,484.607931 C194.9015,487.049931 194.7905,489.566931 194.6825,492.034931 Z" id="logo"></path>
        </g>
    </g>
</svg>